# xmcd CD database file generated by Grip 3.2.0
# 
# Track frame offsets:
#       150
#       27105
#       45598
#       60710
#       75872
#       88490
#       101368
#       130673
#       155138
#       167520
#       184465
# 
# Disc length: 2626 seconds
# 
# Revision: 3
# Processed by: cddbd v1.5.1PL2 Copyright (c) Steve Scherf et al.
# Submitted via: Grip 3.2.0
# 
DISCID=850a400b
DTITLE=Various Artist - JAZZ STANDARDS
DYEAR=1900
DGENRE=Jazz
TTITLE0=Bill Evans - Autumn Leaves
TTITLE1=Kenny Drew - My Funny Valentine
TTITLE2=Sonny Rollins - Night And Day
TTITLE3=Ray Bryant - Angel Eyes
TTITLE4=Erroll Garner - Misty
TTITLE5=Bud Powell - Yesterdays
TTITLE6=Wynton Kelly - Softly As In A Morning Sunrise
TTITLE7=Art Pepper - You'd Be Nice To Come Home To
TTITLE8=Stan Getz - Stella By Starlight
TTITLE9=John Coltrane - What`s New
TTITLE10=Charlie Parker - Summertime
EXTD=
EXTT0=
EXTT1=
EXTT2=
EXTT3=
EXTT4=
EXTT5=
EXTT6=
EXTT7=
EXTT8=
EXTT9=
EXTT10=
PLAYORDER=
